<svg width="1400" height="175" viewBox="0 0 1400 175" fill="none" xmlns="http://www.w3.org/2000/svg">
<path d="M697.172 150.813H650.014V24.7393H697.172V150.813ZM654.62 146.208H692.567V29.3446H654.62V146.208ZM762.788 150.813H716.579V24.7393H813.124C826.954 23.6193 840.728 27.5022 851.937 35.6815C856.762 40.0961 860.503 45.5661 862.865 51.6644C865.229 57.7628 866.151 64.3246 865.559 70.838C866.248 82.093 862.666 93.1938 855.529 101.924C847.083 111.613 833.028 116.605 813.759 116.78C808.905 116.909 772.533 116.78 762.816 116.78L762.788 150.813ZM721.157 146.208H758.183V112.129H760.495C760.964 112.129 808.187 112.276 813.649 112.129C831.6 111.972 844.504 107.524 852.047 98.838C858.401 90.9395 861.556 80.9434 860.89 70.8288C861.456 64.9928 860.67 59.1046 858.594 53.6212C856.517 48.1377 853.206 43.2062 848.916 39.2091C838.523 31.7495 825.807 28.2479 813.059 29.3354H721.184L721.157 146.208ZM803.342 88.4578H757.87V54.1393H803.646C806.891 53.691 810.197 54.0697 813.255 55.2403C816.315 56.4109 819.029 58.3355 821.146 60.8354C823.066 64.0309 823.972 67.7339 823.743 71.4551C823.916 74.91 823.17 78.3489 821.579 81.4209C819.395 84.054 816.57 86.081 813.376 87.3069C810.183 88.5328 806.727 88.9165 803.342 88.4209V88.4578ZM762.475 83.8525H803.342C810.895 83.8525 815.574 82.2775 817.646 79.0354C818.787 76.6789 819.304 74.0687 819.147 71.4551C819.349 68.7109 818.754 65.9669 817.434 63.5525L817.379 63.4696C815.187 60.2459 810.83 58.7446 803.646 58.7446H762.475V83.8525ZM949.605 152.674C908.25 152.674 883.566 142.404 874.162 121.284C872.623 117.205 871.578 112.956 871.049 108.629L870.643 105.976H919.846L920.168 107.91C920.547 109.874 921.384 111.723 922.6 113.308C924.543 115.656 931.028 119.599 952.543 119.599C978.407 119.599 978.407 115.058 978.407 112.617C978.407 108.5 975.413 107.091 954.321 104.843L950.315 104.466C942.375 103.72 932.336 102.771 927.749 102.375C889.064 98.8749 871.795 86.8551 871.795 63.4143C871.795 38.7946 901.186 22.888 946.676 22.888C983.786 22.888 1007.7 32.6696 1017.73 51.9841C1020.1 56.4768 1021.71 61.3419 1022.45 66.3709L1022.77 68.9591H973.516L973.313 66.8775C973.12 65.2507 972.429 63.7246 971.324 62.5117C969.482 60.0433 963.661 55.963 945.59 55.963C923.401 55.963 920.343 58.7999 920.343 61.8578C920.343 65.938 927.353 67.3841 949.817 69.788C959.184 70.5525 974.243 72.0999 979.401 72.7262C1011.83 76.2446 1026.3 87.9696 1026.3 110.756C1026.31 129.868 1013 152.674 949.605 152.674ZM876.022 110.581C876.484 113.619 877.278 116.596 878.389 119.46C886.955 138.701 910.258 148.068 949.605 148.068C982.505 148.068 1021.73 141.621 1021.73 110.756C1021.73 90.5578 1008.93 80.5551 978.913 77.3038C973.755 76.6775 958.788 75.1393 949.44 74.3657C925.492 71.7683 915.757 70.3867 915.757 61.8578C915.757 53.0341 926.247 51.3578 945.608 51.3578C960.907 51.3578 970.79 54.1209 974.98 59.6933C976.122 61.0661 976.988 62.6494 977.522 64.3538H1017.44C1016.64 60.7916 1015.37 57.351 1013.66 54.1209C1004.45 36.4459 981.953 27.4933 946.695 27.4933C904.004 27.4933 876.418 41.5946 876.418 63.4143C876.418 84.2301 891.901 94.5091 928.172 97.788C932.778 98.1841 942.808 99.1328 950.766 99.888L954.8 100.266C974.391 102.329 983.03 103.618 983.03 112.617C983.03 122.306 971.858 124.204 952.562 124.204C934.712 124.204 923.438 121.524 919.082 116.246C917.739 114.563 916.726 112.641 916.097 110.581H876.022ZM1113.8 152.517C1065.72 152.517 1039.2 133.074 1039.2 97.7604V24.7393H1085.73V97.7604C1085.73 109.872 1096.57 116.817 1115.46 116.817C1133.51 116.817 1144.72 109.568 1144.72 97.917V24.7393H1190.77V101.629C1190.82 133.967 1162.74 152.517 1113.77 152.517H1113.8ZM1043.8 29.3446V97.7604C1043.8 141.4 1087.63 147.912 1113.8 147.912C1140.86 147.912 1186.24 141.897 1186.24 101.629V29.3446H1149.4V97.917C1149.4 112.193 1136.1 121.422 1115.53 121.422C1094.04 121.422 1081.2 112.58 1081.2 97.7604V29.3446H1043.8ZM1385.93 150.813H1342.01V93.892L1317.11 150.813H1278.8L1254.15 94.0025V150.813H1210.08V24.7393H1268.05L1298.17 94.2512L1329.74 24.7393H1385.98L1385.93 150.813ZM1346.62 146.208H1381.32V29.3446H1332.67L1298.02 105.599L1264.99 29.3446H1214.65V146.208H1249.51V71.842L1281.75 146.235H1313.98L1346.56 71.9525L1346.62 146.208ZM55.7605 27.042H13.8158V148.51H129.721V116.172H55.7605V27.042ZM214.384 24.2788C160.843 24.2788 132.687 49.6538 132.687 86.9104C132.687 129.002 162.243 150.352 214.384 150.352C271.784 150.352 295.925 125.595 295.925 86.9104C295.925 47.6275 268.689 24.2604 214.384 24.2604V24.2788ZM214.228 55.8433C217.872 55.8262 221.515 56.0384 225.133 56.4788L178.242 103.37C176.023 98.3508 174.941 92.9028 175.074 87.417C175.074 68.3604 184.671 55.8249 214.228 55.8249V55.8433ZM214.384 119.285C210.872 119.301 207.363 119.104 203.875 118.696L250.849 71.7222C252.985 76.6582 254.007 82.0042 253.842 87.3801C253.842 105.921 245 119.267 214.384 119.267V119.285ZM379.032 102.706H422.201C421.566 105.703 420.241 108.509 418.333 110.904C409.383 118.195 397.961 121.743 386.455 120.805C380.664 121.425 374.808 120.792 369.282 118.95C363.757 117.109 358.691 114.101 354.43 110.13C350.065 103.728 347.992 96.039 348.545 88.3104C347.838 80.212 350.093 72.1323 354.891 65.5696C360.924 58.7538 371.138 55.8157 386.151 55.8157C395.704 55.0248 405.244 57.478 413.23 62.7788C415.748 64.7782 417.629 67.4661 418.646 70.5157H458.684C458.393 65.491 457.185 60.5621 455.12 55.9722C445.532 36.4736 423.242 24.8683 385.341 24.8683C352.376 24.8683 330.253 34.9262 318.03 50.0959C309.958 61.0506 305.814 74.4066 306.268 88.0065C305.746 101.914 309.783 115.611 317.763 127.013C329.838 142.671 351.345 150.371 377.189 150.371C394.372 151.569 411.437 146.757 425.462 136.758L426.549 148.51H459.808V76.5578H379.032V102.706ZM554.207 24.2512C500.675 24.2512 472.509 49.6262 472.509 86.8828C472.509 128.975 502.057 150.325 554.207 150.325C611.616 150.325 635.757 125.567 635.757 86.8828C635.757 47.6275 608.521 24.2604 554.207 24.2604V24.2512ZM554.059 55.8157C557.608 55.8052 561.154 56.0082 564.679 56.4236L517.972 103.158C515.823 98.1942 514.776 92.8245 514.905 87.417C514.868 68.3604 524.503 55.8249 554.059 55.8249V55.8157ZM554.207 119.258C550.602 119.273 546.999 119.063 543.421 118.631L590.551 71.492C592.768 76.4936 593.829 81.9305 593.655 87.3986C593.674 105.921 584.868 119.267 554.207 119.267V119.258Z" fill="#394149"/>
</svg>
