<svg width="1913" height="499" viewBox="0 0 1913 499" fill="none" xmlns="http://www.w3.org/2000/svg">
<path d="M156.752 452.63L111.666 374.545L177.833 260.266L219.879 333.091L468.086 332.957L397.656 453.708L156.752 452.63Z" fill="#FFAD64"/>
<path d="M512.408 255.421L467.323 333.505L335.262 333.35L377.312 260.526L253.093 45.6577L392.89 46.2711L512.408 255.421Z" fill="#ADD4D3"/>
<path d="M163.702 45.2423H253.875L319.769 159.68L235.671 159.676L111.684 374.679L42.3154 253.315L163.702 45.2423Z" fill="#FB8351"/>
<path fill-rule="evenodd" clip-rule="evenodd" d="M264.868 27.1625L264.599 26.696H153.049L20.8984 253.22L111.613 411.93L111.724 411.737L146.018 471.131L408.284 472.304L500.387 314.394H499.774L533.798 255.469L403.681 27.7714L264.868 27.1625ZM351.158 178.226H351.854L286.281 64.3506L382.098 64.7707L491.018 255.373L456.926 314.419L367.583 314.466L398.733 260.52L351.158 178.226ZM242.151 63.7892L286.863 141.131L224.957 141.13L118.972 324.913L111.742 337.4L63.7352 253.409L174.356 63.7892H242.151ZM199.163 260.112L246.386 178.223L308.309 178.226L355.89 260.531L324.733 314.489L230.587 314.541L199.163 260.112ZM133.128 374.62L151.094 343.467L177.811 297.322L209.174 351.645L303.306 351.594L303.154 351.857L435.5 352.014L387.031 435.116L167.49 434.133L133.128 374.62Z" fill="#333237"/>
<path d="M1209.43 162.435C1222.13 162.435 1232.45 152.114 1232.45 139.149C1232.45 126.182 1222.13 116.127 1209.43 116.127C1196.46 116.127 1186.14 126.182 1186.14 139.149C1186.14 152.114 1196.46 162.435 1209.43 162.435ZM1188.79 315.386H1229.81V183.076H1188.79V315.386Z" fill="#FB8351"/>
<path d="M1253.69 378.896H1293.91V302.156C1301.59 312.212 1319.05 319.091 1337.31 319.091C1376.75 319.091 1400.57 288.925 1399.51 247.115C1398.44 204.51 1373.83 178.842 1337.05 178.842C1318.26 178.842 1300.53 187.045 1293.12 199.218L1291 183.076H1253.69V378.896ZM1294.71 249.231C1294.71 229.385 1307.94 216.154 1326.99 216.154C1346.31 216.154 1358.49 229.65 1358.49 249.231C1358.49 268.813 1346.31 282.309 1326.99 282.309C1307.94 282.309 1294.71 269.078 1294.71 249.231Z" fill="#FB8351"/>
<path d="M1403.85 273.577C1404.9 300.304 1426.09 318.826 1459.42 318.826C1491.45 318.826 1513.68 301.891 1513.68 274.634C1513.68 255.053 1502.04 242.087 1480.33 236.794L1456.78 230.972C1448.31 228.855 1443.01 226.739 1443.01 219.858C1443.01 212.979 1448.57 208.48 1456.78 208.48C1466.04 208.48 1472.12 214.566 1471.86 223.563H1508.65C1507.6 196.042 1486.68 178.842 1457.57 178.842C1428.19 178.842 1406.24 196.307 1406.24 222.769C1406.24 240.499 1416.02 255.053 1442.22 261.933L1465.51 268.02C1472.39 269.872 1475.3 273.047 1475.3 277.545C1475.3 284.161 1469.21 288.396 1458.9 288.396C1446.99 288.396 1440.64 282.839 1440.64 273.577H1403.85Z" fill="#FB8351"/>
<path d="M1576.06 318.826C1592.2 318.826 1608.35 311.417 1616.55 300.568L1619.2 315.386H1657.57V183.076H1616.82V251.877C1616.82 271.723 1611 282.574 1592.2 282.574C1577.64 282.574 1568.12 275.958 1568.12 251.347V183.076H1527.36V266.166C1527.36 297.657 1544.83 318.826 1576.06 318.826Z" fill="#FB8351"/>
<path d="M1722.2 315.386V243.145C1722.2 220.917 1734.11 214.566 1745.75 214.566C1758.73 214.566 1767.2 222.504 1767.2 238.912V315.386H1807.41V243.145C1807.41 220.652 1819.05 214.301 1830.7 214.301C1843.67 214.301 1852.41 222.239 1852.41 238.912V315.386H1892.1V228.855C1892.1 198.688 1876.22 178.577 1842.08 178.577C1823.03 178.577 1807.41 187.839 1800.53 202.128C1792.59 187.839 1778.84 178.577 1756.87 178.577C1742.31 178.577 1728.81 185.193 1720.88 195.777L1719.29 183.076H1681.18V315.386H1722.2Z" fill="#FB8351"/>
<path d="M650.477 119.587H607.075V315.407H727.224V277.037H650.477V119.587Z" fill="#333237"/>
<path d="M731.369 248.987C731.369 290.797 759.423 318.583 801.765 318.583C843.844 318.583 871.896 290.797 871.896 248.987C871.896 207.177 843.844 179.126 801.765 179.126C759.423 179.126 731.369 207.177 731.369 248.987ZM772.389 248.723C772.389 228.875 784.034 215.644 801.765 215.644C819.232 215.644 830.876 228.875 830.876 248.723C830.876 268.834 819.232 282.064 801.765 282.064C784.034 282.064 772.389 268.834 772.389 248.723Z" fill="#333237"/>
<path d="M878.451 246.87C878.451 286.828 904.387 313.819 941.173 313.819C958.904 313.819 974.253 307.469 981.928 297.148V315.407C981.928 333.666 970.548 345.838 950.435 345.838C932.439 345.838 920.001 337.37 919.206 322.286H877.923C881.627 358.54 909.68 382.886 948.054 382.886C993.307 382.886 1021.89 353.513 1021.89 306.939V183.096H985.104L982.987 196.593C975.576 185.742 959.963 178.598 941.967 178.598C904.916 178.598 878.451 206.383 878.451 246.87ZM919.736 245.812C919.736 226.758 932.439 214.058 948.582 214.058C967.372 214.058 981.133 226.494 981.133 245.812C981.133 265.129 967.637 278.359 948.847 278.359C932.704 278.359 919.736 265.129 919.736 245.812Z" fill="#333237"/>
<path d="M1033.77 248.987C1033.77 290.797 1061.82 318.583 1104.16 318.583C1146.24 318.583 1174.29 290.797 1174.29 248.987C1174.29 207.177 1146.24 179.126 1104.16 179.126C1061.82 179.126 1033.77 207.177 1033.77 248.987ZM1074.79 248.723C1074.79 228.875 1086.43 215.644 1104.16 215.644C1121.63 215.644 1133.27 228.875 1133.27 248.723C1133.27 268.834 1121.63 282.064 1104.16 282.064C1086.43 282.064 1074.79 268.834 1074.79 248.723Z" fill="#333237"/>
</svg>
