<svg width="3221" height="1224" viewBox="0 0 3221 1224" fill="none" xmlns="http://www.w3.org/2000/svg">
<path d="M656.446 620.688C656.446 576.004 683.125 544.875 723.896 544.875C764.668 544.875 791.344 576.004 791.344 620.688C791.344 664.873 764.668 696.501 723.896 696.501C683.125 696.501 656.446 664.873 656.446 620.688Z" fill="#152C4F"/>
<path d="M1001.25 542.868C962.497 542.868 936.323 572.991 936.323 614.162C936.323 655.834 963 686.963 1001.25 686.963C1043.54 686.963 1071.72 655.332 1071.72 614.162C1071.72 573.493 1043.54 542.868 1001.25 542.868Z" fill="#152C4F"/>
<path d="M1225.94 620.688C1225.94 576.004 1252.61 544.875 1293.39 544.875C1334.16 544.875 1360.83 576.004 1360.83 620.688C1360.83 664.873 1334.16 696.501 1293.39 696.501C1252.61 696.501 1225.94 664.873 1225.94 620.688Z" fill="#152C4F"/>
<path d="M1636.12 621.191C1636.12 576.506 1663.31 545.378 1706.09 545.378C1748.88 545.378 1774.54 577.009 1774.54 621.191C1774.54 665.373 1748.88 696.501 1706.09 696.501C1663.31 696.501 1636.12 665.875 1636.12 621.191Z" fill="#152C4F"/>
<path fill-rule="evenodd" clip-rule="evenodd" d="M1610.5 1145.95C2465.74 1145.95 3159.05 903.288 3159.05 603.947C3159.05 304.606 2465.74 61.9439 1610.5 61.9439C755.254 61.9439 61.9404 304.606 61.9404 603.947C61.9404 903.288 755.254 1145.95 1610.5 1145.95ZM556.945 745.203V371.66H495.536V745.203H556.945ZM594.53 620.688C594.53 697.004 645.873 751.229 723.892 751.229C801.911 751.229 853.252 697.004 853.252 620.688C853.252 544.373 801.911 490.15 723.892 490.15C645.873 490.15 594.53 544.373 594.53 620.688ZM990.683 740.183C920.717 740.183 873.905 687.967 873.905 615.668C873.905 542.868 921.724 489.145 992.695 489.145C1029.44 489.145 1060.65 504.711 1075.75 530.819L1079.27 497.178H1133.63V732.652C1133.63 814.49 1082.29 867.206 1001.76 867.206C933.3 867.206 883.469 825.034 875.416 760.265H937.328C940.85 792.901 967.026 811.478 1005.28 811.478C1048.06 811.478 1073.74 784.365 1073.74 743.696V701.524C1058.13 725.622 1026.92 740.183 990.683 740.183ZM1164.02 620.688C1164.02 697.004 1215.37 751.229 1293.38 751.229C1371.4 751.229 1422.74 697.004 1422.74 620.688C1422.74 544.373 1371.4 490.15 1293.38 490.15C1215.37 490.15 1164.02 544.373 1164.02 620.688ZM1525.95 409.819C1525.95 430.404 1509.34 446.47 1489.2 446.47C1468.57 446.47 1452.96 430.404 1452.96 409.819C1452.96 389.735 1468.57 373.668 1489.2 373.668C1509.34 373.668 1525.95 389.735 1525.95 409.819ZM1519.91 497.178V745.203H1458.5V497.178H1519.91ZM1573.71 860.178H1633.61V711.062C1649.21 736.668 1682.93 751.729 1720.18 751.729C1793.67 751.729 1837.46 695.498 1836.45 618.178C1834.94 540.357 1790.15 489.647 1719.68 489.647C1681.93 489.647 1647.7 506.216 1632.6 534.834L1629.07 497.178H1573.71V860.178ZM1951.71 751.729C1892.31 751.729 1854.06 720.099 1852.05 670.896H1907.92C1907.92 692.486 1923.52 705.037 1950.7 705.037C1973.35 705.037 1991.98 696.001 1991.98 676.419C1991.98 662.36 1981.91 654.829 1965.8 650.311L1922.52 639.265C1874.7 626.714 1856.07 600.104 1856.07 567.97C1856.07 520.776 1895.84 489.647 1949.19 489.647C2003.05 489.647 2039.8 520.776 2041.81 569.98H1985.94C1985.94 548.391 1970.84 535.337 1947.68 535.337C1925.54 535.337 1911.94 547.386 1911.94 564.457C1911.94 580.524 1924.53 587.05 1943.15 592.07L1986.94 602.614C2027.72 612.655 2049.86 636.755 2049.86 672.403C2049.86 720.601 2010.1 751.729 1951.71 751.729ZM2177.24 751.729C2210.96 751.729 2243.17 736.165 2257.77 713.07L2261.81 745.203H2319.18V497.178H2257.77V627.216C2257.77 671.901 2240.65 697.004 2200.39 697.004C2169.19 697.004 2147.55 681.942 2147.55 630.731V497.178H2086.13V652.319C2086.13 711.565 2118.34 751.729 2177.24 751.729ZM2434.79 602.614V745.203H2373.38V497.178H2429.75L2432.78 525.296C2447.38 503.204 2473.55 489.647 2502.74 489.647C2544.01 489.647 2571.19 507.722 2584.79 536.842C2596.88 507.722 2626.57 489.647 2664.32 489.647C2724.73 489.647 2756.42 525.798 2756.42 583.034V745.203H2697.03V597.091C2697.03 561.947 2677.92 543.37 2648.22 543.37C2619.01 543.37 2595.87 562.449 2595.87 603.116V745.203H2535.96V597.091C2535.96 561.947 2516.84 543.37 2487.64 543.37C2458.46 543.37 2434.79 562.45 2434.79 602.614Z" fill="#152C4F"/>
</svg>
