<svg width="802" height="642" viewBox="0 0 802 642" fill="none" xmlns="http://www.w3.org/2000/svg">
<path d="M401.002 0L802 240.907V401.03L401.002 642L0 401.03V240.909L401.002 0Z" fill="#A5B4FC"/>
<path fill-rule="evenodd" clip-rule="evenodd" d="M0 240.907L401 0L802 240.907V401.03L401 642L0 401.03V240.907ZM401 539.778L716.935 349.925V292.031L716.919 292.022L401 481.816L85.0803 292.022L85.0649 292.031V349.925L401 539.778ZM401 393.299L643.233 247.773L584.223 212.338L401 322.414L217.777 212.338L158.767 247.773L401 393.299ZM401 233.897L510.537 168.09L401 102.313L291.463 168.09L401 233.897Z" fill="#4F46E5"/>
<path d="M401.002 0L0 240.909V401.03L401 642L401.002 0Z" fill="#A5B4FC" fill-opacity="0.3"/>
</svg>
