<svg width="1357" height="337" viewBox="0 0 1357 337" fill="none" xmlns="http://www.w3.org/2000/svg">
<g clip-path="url(#clip0_273_8)">
<path d="M218.265 168.723C229.339 159.451 236.382 145.523 236.382 129.95C236.382 114.378 229.339 100.45 218.265 91.1771C219.534 90.5625 220.756 89.8956 221.919 89.1728C229.265 84.606 237.935 81.9685 247.221 81.9685C273.723 81.9685 295.207 103.451 295.207 129.95C295.207 156.45 273.723 177.932 247.221 177.932C237.935 177.932 229.265 175.294 221.919 170.728C220.756 170.005 219.534 169.338 218.265 168.723Z" fill="url(#paint0_linear_273_8)"/>
<path d="M204.938 137.504C209.891 123.937 209.026 108.354 201.238 94.8681C193.451 81.3819 180.388 72.8408 166.16 70.3469C166.952 69.1805 167.676 67.9922 168.322 66.7845C172.4 59.1572 178.59 52.5385 186.632 47.8958C209.584 34.6461 238.932 42.5091 252.183 65.4583C265.433 88.4077 257.57 117.753 234.618 131.003C226.576 135.645 217.749 137.696 209.104 137.413C207.735 137.368 206.344 137.402 204.938 137.504Z" fill="url(#paint1_linear_273_8)"/>
<path d="M177.782 117.13C175.288 102.904 166.746 89.8415 153.259 82.0552C139.771 74.2689 124.187 73.4034 110.619 78.3565C110.721 76.9505 110.754 75.5593 110.709 74.1907C110.427 65.5464 112.478 56.7198 117.121 48.6785C130.372 25.7292 159.72 17.8662 182.672 31.116C205.623 44.3658 213.487 73.7109 200.236 96.6604C195.593 104.701 188.973 110.891 181.345 114.968C180.138 115.614 178.949 116.338 177.782 117.13Z" fill="url(#paint2_linear_273_8)"/>
<path d="M144.074 113.062C134.8 101.989 120.871 94.9471 105.297 94.9471C89.7223 94.9471 75.7935 101.989 66.5198 113.062C65.9056 111.793 65.2384 110.571 64.5153 109.408C59.9482 102.063 57.3104 93.3942 57.3104 84.1088C57.3104 57.6092 78.7947 36.127 105.297 36.127C131.799 36.127 153.283 57.6092 153.283 84.1088C153.283 93.3942 150.645 102.063 146.079 109.408C145.355 110.571 144.688 111.793 144.074 113.062Z" fill="url(#paint3_linear_273_8)"/>
<path d="M112.845 126.389C99.2767 121.436 83.6922 122.302 70.2046 130.087C56.717 137.874 48.1751 150.936 45.6811 165.162C44.5145 164.37 43.326 163.646 42.1182 163.001C34.4902 158.923 27.8707 152.734 23.2277 144.693C9.97652 121.743 17.8403 92.3983 40.7919 79.1484C63.7434 65.8985 93.0913 73.7615 106.343 96.711C110.986 104.752 113.037 113.579 112.754 122.223C112.709 123.591 112.742 124.983 112.845 126.389Z" fill="url(#paint4_linear_273_8)"/>
<path d="M92.4596 153.544C78.232 156.038 65.1685 164.579 57.3815 178.065C49.5944 191.552 48.7288 207.134 53.6825 220.701C52.2762 220.598 50.8847 220.566 49.5158 220.61C40.8707 220.893 32.0433 218.842 24.0012 214.2C1.04967 200.95 -6.81411 171.605 6.43697 148.655C19.688 125.706 49.036 117.843 71.9876 131.093C80.0297 135.736 86.2193 142.354 90.2973 149.981C90.9429 151.189 91.6676 152.377 92.4596 153.544Z" fill="url(#paint5_linear_273_8)"/>
<path d="M88.3831 187.251C77.309 196.524 70.2665 210.452 70.2665 226.024C70.2665 241.597 77.309 255.525 88.3831 264.798C87.114 265.411 85.8926 266.079 84.7294 266.802C77.3838 271.368 68.7137 274.006 59.4275 274.006C32.9254 274.006 11.4412 252.524 11.4412 226.024C11.4412 199.524 32.9254 178.042 59.4275 178.042C68.7137 178.042 77.3838 180.68 84.7294 185.247C85.8926 185.97 87.114 186.637 88.3831 187.251Z" fill="url(#paint6_linear_273_8)"/>
<path d="M101.707 218.479C96.753 232.046 97.6187 247.629 105.406 261.115C113.193 274.602 126.257 283.142 140.484 285.636C139.692 286.803 138.968 287.991 138.322 289.199C134.244 296.826 128.055 303.445 120.013 308.087C97.0608 321.338 67.7129 313.474 54.4618 290.525C41.2107 267.575 49.0746 238.231 72.026 224.98C80.0682 220.338 88.8958 218.287 97.5406 218.57C98.9092 218.615 100.301 218.582 101.707 218.479Z" fill="url(#paint7_linear_273_8)"/>
<path d="M128.864 238.862C131.358 253.088 139.9 266.15 153.388 273.936C166.875 281.722 182.46 282.588 196.029 277.635C195.926 279.041 195.893 280.432 195.937 281.801C196.22 290.445 194.17 299.272 189.527 307.313C176.275 330.263 146.927 338.125 123.976 324.875C101.024 311.626 93.1601 282.281 106.412 259.331C111.055 251.29 117.674 245.101 125.301 241.023C126.509 240.378 127.698 239.653 128.864 238.862Z" fill="url(#paint8_linear_273_8)"/>
<path d="M162.575 242.938C171.849 254.011 185.778 261.053 201.352 261.053C216.927 261.053 230.856 254.011 240.13 242.938C240.743 244.207 241.41 245.428 242.134 246.591C246.701 253.936 249.339 262.605 249.339 271.891C249.339 298.39 227.855 319.872 201.352 319.872C174.85 319.872 153.366 298.39 153.366 271.891C153.366 262.605 156.004 253.936 160.57 246.591C161.294 245.428 161.961 244.207 162.575 242.938Z" fill="url(#paint9_linear_273_8)"/>
<path d="M193.806 229.615C207.374 234.568 222.958 233.702 236.446 225.917C249.934 218.13 258.475 205.068 260.97 190.842C262.136 191.633 263.324 192.358 264.532 193.003C272.161 197.081 278.78 203.27 283.423 211.311C296.675 234.261 288.81 263.606 265.859 276.856C242.907 290.106 213.56 282.243 200.308 259.293C195.665 251.252 193.614 242.425 193.897 233.781C193.942 232.413 193.909 231.021 193.806 229.615Z" fill="url(#paint10_linear_273_8)"/>
<path d="M249.298 177.888C249.288 177.905 249.278 177.922 249.268 177.939C241.482 191.425 228.418 199.966 214.191 202.46C214.982 203.627 215.707 204.815 216.353 206.022C220.431 213.65 226.621 220.269 234.662 224.911C257.614 238.161 286.962 230.298 300.213 207.349C311.573 187.674 307.414 163.298 291.534 148.394C284.557 165.134 268.368 177.076 249.298 177.888Z" fill="url(#paint11_linear_273_8)"/>
<path d="M419.167 87.2742V230.579H387.404V87.2742H419.167ZM392.439 230.579L393.02 202.499H475.331V230.579H392.439ZM480.303 181.971C480.303 171.772 482.433 162.864 486.694 155.247C490.955 147.5 496.958 141.497 504.705 137.237C512.452 132.977 521.49 130.846 531.82 130.846C542.149 130.846 551.122 132.977 558.74 137.237C566.487 141.497 572.491 147.5 576.752 155.247C581.012 162.864 583.143 171.772 583.143 181.971C583.143 192.171 581.012 201.079 576.752 208.696C572.491 216.313 566.487 222.252 558.74 226.512C551.122 230.772 542.149 232.902 531.82 232.902C521.49 232.902 512.452 230.772 504.705 226.512C496.958 222.252 490.955 216.313 486.694 208.696C482.433 201.079 480.303 192.171 480.303 181.971ZM510.322 181.778C510.322 186.684 511.225 191.009 513.033 194.753C514.84 198.368 517.358 201.208 520.586 203.274C523.814 205.21 527.559 206.178 531.82 206.178C536.081 206.178 539.824 205.21 543.053 203.274C546.28 201.208 548.733 198.368 550.412 194.753C552.22 191.009 553.124 186.684 553.124 181.778C553.124 176.872 552.22 172.611 550.412 168.997C548.733 165.382 546.28 162.606 543.053 160.669C539.824 158.604 536.081 157.571 531.82 157.571C527.559 157.571 523.814 158.604 520.586 160.669C517.358 162.606 514.84 165.382 513.033 168.997C511.225 172.611 510.322 176.872 510.322 181.778ZM589.878 180.423C589.878 170.481 591.879 161.767 595.882 154.279C599.884 146.791 605.372 140.981 612.344 136.849C619.316 132.589 627.322 130.459 636.359 130.459C643.977 130.459 650.691 132.008 656.501 135.107C662.441 138.205 666.443 142.273 668.51 147.307L665.604 149.244L667.929 133.752H694.849V224.382C694.849 235.743 692.654 245.555 688.264 253.818C683.874 262.209 677.612 268.664 669.477 273.183C661.473 277.701 651.918 279.961 640.813 279.961C631.518 279.961 623.125 278.089 615.636 274.345C608.277 270.73 602.273 265.566 597.625 258.852C593.106 252.139 590.394 244.393 589.491 235.614H619.704C619.962 241.165 622.157 245.426 626.288 248.396C630.549 251.365 635.972 252.849 642.557 252.849C649.917 252.849 655.598 250.784 659.6 246.652C663.603 242.65 665.604 237.292 665.604 230.579V210.051L668.315 212.569C666.25 217.604 662.247 221.671 656.308 224.769C650.368 227.868 643.526 229.417 635.778 229.417C626.869 229.417 618.929 227.352 611.956 223.22C605.114 219.089 599.69 213.344 595.687 205.985C591.814 198.626 589.878 190.105 589.878 180.423ZM620.09 179.648C620.09 184.296 621.059 188.426 622.996 192.041C624.933 195.657 627.515 198.497 630.743 200.562C633.971 202.499 637.521 203.467 641.395 203.467C646.043 203.467 650.11 202.499 653.597 200.562C657.212 198.497 659.988 195.657 661.924 192.041C663.99 188.426 665.023 184.296 665.023 179.648C665.023 174.871 663.99 170.804 661.924 167.447C659.859 163.962 657.018 161.25 653.403 159.314C649.917 157.377 645.849 156.409 641.201 156.409C637.328 156.409 633.777 157.377 630.549 159.314C627.322 161.25 624.739 163.962 622.803 167.447C620.994 170.933 620.09 175 620.09 179.648ZM705.479 181.971C705.479 171.772 707.609 162.864 711.87 155.247C716.131 147.5 722.134 141.497 729.881 137.237C737.628 132.977 746.667 130.846 756.996 130.846C767.325 130.846 776.298 132.977 783.917 137.237C791.663 141.497 797.667 147.5 801.928 155.247C806.188 162.864 808.319 171.772 808.319 181.971C808.319 192.171 806.188 201.079 801.928 208.696C797.667 216.313 791.663 222.252 783.917 226.512C776.298 230.772 767.325 232.902 756.996 232.902C746.667 232.902 737.628 230.772 729.881 226.512C722.134 222.252 716.131 216.313 711.87 208.696C707.609 201.079 705.479 192.171 705.479 181.971ZM735.497 181.778C735.497 186.684 736.401 191.009 738.209 194.753C740.016 198.368 742.534 201.208 745.763 203.274C748.99 205.21 752.735 206.178 756.996 206.178C761.257 206.178 765.001 205.21 768.229 203.274C771.456 201.208 773.909 198.368 775.588 194.753C777.396 191.009 778.3 186.684 778.3 181.778C778.3 176.872 777.396 172.611 775.588 168.997C773.909 165.382 771.456 162.606 768.229 160.669C765.001 158.604 761.257 157.571 756.996 157.571C752.735 157.571 748.99 158.604 745.763 160.669C742.534 162.606 740.016 165.382 738.209 168.997C736.401 172.611 735.497 176.872 735.497 181.778ZM820.864 230.579V133.752H850.883V230.579H820.864ZM835.971 118.646C831.194 118.646 827.126 117.032 823.769 113.805C820.541 110.448 818.927 106.381 818.927 101.605C818.927 96.8281 820.541 92.8257 823.769 89.5976C827.126 86.3704 831.194 84.7566 835.971 84.7566C840.619 84.7566 844.557 86.3704 847.784 89.5976C851.141 92.8257 852.82 96.8281 852.82 101.605C852.82 106.381 851.141 110.448 847.784 113.805C844.557 117.032 840.619 118.646 835.971 118.646ZM870.295 277.057V133.752H897.607L899.15 145.564C901.864 141.046 906.192 137.431 912.126 134.719C918.068 132.008 924.463 130.653 931.301 130.653C940.339 130.653 948.215 132.654 954.929 136.656C961.643 140.658 966.938 146.403 970.814 153.892C974.681 161.25 976.747 170.158 977.013 180.616C977.271 190.815 975.585 199.917 971.976 207.921C968.357 215.796 963.133 221.993 956.286 226.512C949.439 231.031 941.181 233.29 931.496 233.29C924.782 233.29 918.52 232.128 912.711 229.805C906.902 227.48 902.573 224.511 899.735 220.896V277.057H870.295ZM900.312 182.165C900.312 186.942 901.279 191.202 903.221 194.947C905.287 198.561 908.064 201.402 911.549 203.467C915.159 205.404 919.292 206.372 923.94 206.372C928.72 206.372 932.791 205.339 936.144 203.274C939.629 201.208 942.281 198.368 944.082 194.753C946.024 191.138 946.991 186.942 946.991 182.165C946.991 177.388 946.024 173.192 944.082 169.578C942.281 165.963 939.629 163.122 936.144 161.057C932.791 158.991 928.72 157.958 923.94 157.958C919.292 157.958 915.159 158.991 911.549 161.057C908.064 162.994 905.287 165.769 903.221 169.384C901.279 172.999 900.312 177.259 900.312 182.165ZM982.122 199.981H1009.05C1009.05 203.338 1010.14 205.985 1012.34 207.921C1014.66 209.858 1018.02 210.826 1022.41 210.826C1024.99 210.826 1027.12 210.503 1028.8 209.858C1030.61 209.212 1031.97 208.309 1032.86 207.147C1033.9 205.856 1034.42 204.436 1034.42 202.886C1034.42 201.208 1033.84 199.788 1032.68 198.626C1031.64 197.464 1029.83 196.561 1027.25 195.915L1010.21 191.46C1000.65 188.879 993.874 185.07 989.874 180.035C985.865 175 983.869 169.255 983.869 162.799C983.869 156.344 985.484 150.729 988.712 145.952C992.065 141.046 996.588 137.302 1002.26 134.719C1007.95 132.008 1014.34 130.653 1021.44 130.653C1032.15 130.653 1040.93 133.622 1047.78 139.561C1054.75 145.37 1058.43 153.31 1058.82 163.38H1031.9C1032.03 160.024 1031.06 157.377 1029 155.44C1026.93 153.375 1024.22 152.343 1020.86 152.343C1017.89 152.343 1015.44 153.117 1013.5 154.666C1011.69 156.086 1010.79 158.088 1010.79 160.669C1010.79 163.122 1011.69 164.93 1013.5 166.092C1015.31 167.125 1017.76 168.028 1020.86 168.803L1038.1 173.064C1046.11 175 1052.17 178.293 1056.3 182.94C1060.44 187.587 1062.5 193.527 1062.5 200.756C1062.5 210.697 1058.82 218.572 1051.46 224.382C1044.1 230.191 1034.55 233.097 1022.8 233.097C1010.66 233.097 1000.91 230.063 993.555 223.995C986.317 217.798 982.512 209.793 982.122 199.981ZM1110.09 233.097C1098.73 233.097 1089.95 229.546 1083.75 222.446C1077.56 215.345 1074.45 206.049 1074.45 194.559V133.752H1104.28V183.715C1104.28 192.752 1105.89 198.819 1109.12 201.918C1112.35 205.017 1116.61 206.566 1121.9 206.566C1128.75 206.566 1133.46 204.629 1136.04 200.756C1138.62 196.883 1139.92 191.332 1139.92 184.101V133.752H1169.74V230.579H1141.66L1139.72 219.735C1136.75 223.736 1132.55 226.964 1127.13 229.417C1121.71 231.87 1116.03 233.097 1110.09 233.097ZM1218.98 230.579H1188.95V133.752H1216.85L1218.98 150.406L1215.69 146.92C1218.27 142.014 1222.14 138.076 1227.3 135.107C1232.6 132.008 1238.28 130.459 1244.35 130.459C1253.9 130.459 1261.39 132.589 1266.82 136.849C1272.37 141.11 1276.37 146.726 1278.82 153.698H1274.17C1275.72 146.726 1279.46 141.11 1285.41 136.849C1291.35 132.589 1298.45 130.459 1306.71 130.459C1319.23 130.459 1328.47 133.816 1334.41 140.529C1340.34 147.242 1343.31 156.151 1343.31 167.254V230.579H1314.27V174.613C1314.27 168.544 1312.78 164.026 1309.81 161.057C1306.97 158.088 1303.16 156.603 1298.38 156.603C1295.54 156.603 1292.83 157.249 1290.25 158.539C1287.67 159.701 1285.53 161.831 1283.86 164.93C1282.18 167.9 1281.34 172.16 1281.34 177.711V230.579H1251.9V174.613C1251.9 168.544 1250.48 164.091 1247.64 161.25C1244.79 158.281 1240.99 156.796 1236.21 156.796C1233.37 156.796 1230.6 157.442 1227.88 158.733C1225.3 159.895 1223.17 162.025 1221.5 165.124C1219.82 168.093 1218.98 172.289 1218.98 177.711V230.579Z" fill="#1B3D5B"/>
</g>
<defs>
<linearGradient id="paint0_linear_273_8" x1="224.273" y1="81.9685" x2="224.273" y2="177.932" gradientUnits="userSpaceOnUse">
<stop stop-color="#25136D"/>
<stop offset="1" stop-color="#3D9BA2"/>
</linearGradient>
<linearGradient id="paint1_linear_273_8" x1="166.759" y1="59.3683" x2="214.739" y2="142.48" gradientUnits="userSpaceOnUse">
<stop stop-color="#25136D"/>
<stop offset="1" stop-color="#3D9BA2"/>
</linearGradient>
<linearGradient id="paint2_linear_273_8" x1="105.647" y1="68.5495" x2="188.758" y2="116.538" gradientUnits="userSpaceOnUse">
<stop stop-color="#25136D"/>
<stop offset="1" stop-color="#3D9BA2"/>
</linearGradient>
<linearGradient id="paint3_linear_273_8" x1="57.3104" y1="107.053" x2="153.283" y2="107.053" gradientUnits="userSpaceOnUse">
<stop stop-color="#25136D"/>
<stop offset="1" stop-color="#3D9BA2"/>
</linearGradient>
<linearGradient id="paint4_linear_273_8" x1="34.7013" y1="164.563" x2="117.812" y2="116.575" gradientUnits="userSpaceOnUse">
<stop stop-color="#25136D"/>
<stop offset="1" stop-color="#3D9BA2"/>
</linearGradient>
<linearGradient id="paint5_linear_273_8" x1="43.8743" y1="225.672" x2="91.8539" y2="142.561" gradientUnits="userSpaceOnUse">
<stop stop-color="#25136D"/>
<stop offset="1" stop-color="#3D9BA2"/>
</linearGradient>
<linearGradient id="paint6_linear_273_8" x1="82.3748" y1="274.006" x2="82.3748" y2="178.042" gradientUnits="userSpaceOnUse">
<stop stop-color="#25136D"/>
<stop offset="1" stop-color="#3D9BA2"/>
</linearGradient>
<linearGradient id="paint7_linear_273_8" x1="139.885" y1="296.615" x2="91.9059" y2="213.504" gradientUnits="userSpaceOnUse">
<stop stop-color="#25136D"/>
<stop offset="1" stop-color="#3D9BA2"/>
</linearGradient>
<linearGradient id="paint8_linear_273_8" x1="201" y1="287.442" x2="117.889" y2="239.453" gradientUnits="userSpaceOnUse">
<stop stop-color="#25136D"/>
<stop offset="1" stop-color="#3D9BA2"/>
</linearGradient>
<linearGradient id="paint9_linear_273_8" x1="249.339" y1="248.945" x2="153.366" y2="248.945" gradientUnits="userSpaceOnUse">
<stop stop-color="#25136D"/>
<stop offset="1" stop-color="#3D9BA2"/>
</linearGradient>
<linearGradient id="paint10_linear_273_8" x1="271.95" y1="191.441" x2="188.839" y2="239.43" gradientUnits="userSpaceOnUse">
<stop stop-color="#25136D"/>
<stop offset="1" stop-color="#3D9BA2"/>
</linearGradient>
<linearGradient id="paint11_linear_273_8" x1="262.776" y1="130.332" x2="214.797" y2="213.443" gradientUnits="userSpaceOnUse">
<stop stop-color="#25136D"/>
<stop offset="1" stop-color="#3D9BA2"/>
</linearGradient>
<clipPath id="clip0_273_8">
<rect width="1357" height="337" fill="white"/>
</clipPath>
</defs>
</svg>
