<svg width="240" height="29" viewBox="0 0 240 29" fill="none" xmlns="http://www.w3.org/2000/svg">
<path d="M19.8369 6.67188V28H14.6953V10.6416H9.90527L9.55371 17.8047C9.40723 20.2754 9.06543 22.248 8.52832 23.7227C7.99121 25.1973 7.22461 26.2764 6.22852 26.96C5.24219 27.6338 3.89453 27.9805 2.18555 28H0.808594V24.0449L1.52637 23.9717C2.55176 23.8252 3.29395 23.2002 3.75293 22.0967C4.21191 20.9834 4.50977 19.1133 4.64648 16.4863L5.0127 6.67188H19.8369ZM37.3547 6.67188H42.4963V28H37.3547V14.5527L29.6936 28H24.552V6.67188H29.6936V20.1338L37.3547 6.67188ZM61.8305 10.6416H52.558V28H47.4164V6.67188H61.8305V10.6416ZM83.0396 17.7754C83.0396 19.8555 82.6539 21.6963 81.8824 23.2979C81.1109 24.8994 80.0123 26.1348 78.5865 27.0039C77.1705 27.8633 75.5543 28.293 73.7379 28.293C71.9215 28.293 70.3102 27.8779 68.9039 27.0479C67.4977 26.208 66.399 25.0117 65.608 23.459C64.8268 21.9062 64.4166 20.124 64.3775 18.1123V16.9111C64.3775 14.8213 64.7584 12.9805 65.5201 11.3887C66.2916 9.78711 67.3902 8.55176 68.816 7.68262C70.2516 6.81348 71.8824 6.37891 73.7086 6.37891C75.5152 6.37891 77.1266 6.80859 78.5426 7.66797C79.9586 8.52734 81.0572 9.75293 81.8385 11.3447C82.6295 12.9268 83.0299 14.7432 83.0396 16.7939V17.7754ZM77.8102 16.8818C77.8102 14.7627 77.4537 13.1562 76.7408 12.0625C76.0377 10.959 75.027 10.4072 73.7086 10.4072C71.1305 10.4072 69.7682 12.3408 69.6217 16.208L69.607 17.7754C69.607 19.8652 69.9537 21.4717 70.6471 22.5947C71.3404 23.7178 72.3707 24.2793 73.7379 24.2793C75.0367 24.2793 76.0377 23.7275 76.7408 22.624C77.4439 21.5205 77.8004 19.9336 77.8102 17.8633V16.8818ZM87.491 28V6.67188H95.1521C97.8963 6.67188 99.9812 7.1748 101.407 8.18066C102.843 9.18652 103.56 10.6465 103.56 12.5605C103.56 13.6641 103.306 14.6064 102.799 15.3877C102.291 16.1689 101.544 16.7451 100.557 17.1162C101.671 17.4092 102.525 17.9561 103.121 18.7568C103.717 19.5576 104.014 20.5342 104.014 21.6865C104.014 23.7764 103.35 25.3486 102.022 26.4033C100.704 27.4482 98.7459 27.9805 96.1482 28H87.491ZM92.6326 18.9326V24.0449H96.0018C96.9295 24.0449 97.6424 23.835 98.1404 23.415C98.6385 22.9854 98.8875 22.3848 98.8875 21.6133C98.8875 19.8359 98.0037 18.9424 96.2361 18.9326H92.6326ZM92.6326 15.5635H95.3133C96.4363 15.5537 97.2371 15.3486 97.7156 14.9482C98.1941 14.5479 98.4334 13.957 98.4334 13.1758C98.4334 12.2773 98.1746 11.6328 97.657 11.2422C97.1395 10.8418 96.3045 10.6416 95.1521 10.6416H92.6326V15.5635ZM125.912 20.7783C125.844 22.2627 125.443 23.5762 124.711 24.7188C123.979 25.8516 122.948 26.7305 121.62 27.3555C120.302 27.9805 118.793 28.293 117.094 28.293C114.291 28.293 112.084 27.3799 110.473 25.5537C108.861 23.7275 108.056 21.1494 108.056 17.8193V16.7646C108.056 14.6748 108.417 12.8486 109.14 11.2861C109.872 9.71387 110.922 8.50293 112.289 7.65332C113.656 6.79395 115.238 6.36426 117.035 6.36426C119.623 6.36426 121.703 7.04785 123.275 8.41504C124.848 9.77246 125.741 11.6475 125.956 14.04H120.829C120.79 12.7412 120.463 11.8086 119.848 11.2422C119.232 10.6758 118.295 10.3926 117.035 10.3926C115.756 10.3926 114.818 10.8711 114.223 11.8281C113.627 12.7852 113.314 14.3135 113.285 16.4131V17.9219C113.285 20.1973 113.568 21.8232 114.135 22.7998C114.711 23.7764 115.697 24.2646 117.094 24.2646C118.275 24.2646 119.179 23.9863 119.804 23.4297C120.429 22.873 120.761 21.9893 120.8 20.7783H125.912ZM137.688 19.5625H135.256V28H130.114V6.67188H135.256V14.9189H137.234L141.335 6.67188H147.561L141.701 16.5156L148.293 28H142.214L137.688 19.5625ZM163.877 6.67188H169.019V28H163.877V14.5527L156.216 28H151.075V6.67188H156.216V20.1338L163.877 6.67188ZM186.478 6.67188H191.62V28H186.478V14.5527L178.817 28H173.675V6.67188H178.817V20.1338L186.478 6.67188ZM188.104 0.929688C188.104 2.26758 187.611 3.35156 186.625 4.18164C185.638 5.01172 184.325 5.42676 182.684 5.42676C181.044 5.42676 179.73 5.01172 178.744 4.18164C177.757 3.35156 177.264 2.26758 177.264 0.929688H180.619C180.619 1.51562 180.799 1.97461 181.161 2.30664C181.532 2.62891 182.04 2.79004 182.684 2.79004C183.329 2.79004 183.827 2.63379 184.178 2.32129C184.54 1.99902 184.72 1.53516 184.72 0.929688H188.104ZM205.825 17.5703L207.129 6.67188H219.595V10.5098H211.143L210.659 14.7432C211.011 14.5381 211.47 14.3574 212.036 14.2012C212.612 14.0449 213.174 13.9668 213.721 13.9668C215.84 13.9668 217.466 14.5967 218.599 15.8564C219.741 17.1064 220.312 18.8643 220.312 21.1299C220.312 22.4971 220.005 23.7373 219.39 24.8506C218.784 25.9541 217.93 26.8037 216.826 27.3994C215.723 27.9951 214.419 28.293 212.915 28.293C211.577 28.293 210.322 28.0195 209.15 27.4727C207.979 26.916 207.061 26.1592 206.396 25.2021C205.732 24.2354 205.405 23.1465 205.415 21.9355H210.366C210.415 22.7168 210.664 23.3369 211.113 23.7959C211.562 24.2549 212.153 24.4844 212.886 24.4844C214.546 24.4844 215.376 23.2539 215.376 20.793C215.376 18.5176 214.36 17.3799 212.329 17.3799C211.177 17.3799 210.317 17.751 209.751 18.4932L205.825 17.5703ZM239.515 19.2842C239.515 22.165 238.865 24.3867 237.567 25.9492C236.278 27.5117 234.456 28.293 232.103 28.293C229.73 28.293 227.894 27.5068 226.595 25.9346C225.296 24.3623 224.647 22.1455 224.647 19.2842V15.3877C224.647 12.5068 225.291 10.2852 226.58 8.72266C227.879 7.16016 229.71 6.37891 232.073 6.37891C234.437 6.37891 236.268 7.16504 237.567 8.7373C238.865 10.3096 239.515 12.5312 239.515 15.4023V19.2842ZM234.578 14.7578C234.578 13.2246 234.378 12.082 233.978 11.3301C233.577 10.5684 232.943 10.1875 232.073 10.1875C231.224 10.1875 230.604 10.5391 230.213 11.2422C229.832 11.9453 229.627 13.0098 229.598 14.4355V19.8848C229.598 21.4766 229.798 22.6436 230.198 23.3857C230.599 24.1182 231.234 24.4844 232.103 24.4844C232.943 24.4844 233.563 24.1279 233.963 23.415C234.363 22.6924 234.569 21.5645 234.578 20.0312V14.7578Z" fill="black"/>
</svg>
