<svg width="16" height="20" viewBox="0 0 16 20" fill="none" xmlns="http://www.w3.org/2000/svg">
<path d="M0.258726 11.9731C0.258726 14.0025 1.0649 15.9488 2.49991 17.3838C3.93491 18.8188 5.8812 19.625 7.9106 19.625C9.94001 19.625 11.8863 18.8188 13.3213 17.3838C14.7563 15.9488 15.5625 14.0025 15.5625 11.9731C15.5667 10.3031 15.0179 8.67856 14.0019 7.35312C13.5777 6.75644 13.0627 6.22985 12.4756 5.7925C12.3598 5.71114 12.2218 5.66748 12.0803 5.66748C11.9388 5.66748 11.8007 5.71114 11.685 5.7925C11.5676 5.87822 11.4805 5.99891 11.436 6.13725C11.3916 6.27559 11.3921 6.42447 11.4375 6.5625C11.6722 7.46415 11.6722 8.41085 11.4375 9.3125C11.3282 9.66751 11.1043 9.97622 10.8007 10.1902C10.4971 10.4042 10.131 10.5114 9.75998 10.495C9.60534 10.4973 9.45205 10.4659 9.31078 10.4029C9.1695 10.34 9.04361 10.2471 8.94185 10.1306C8.84761 9.927 8.7988 9.70531 8.7988 9.48094C8.7988 9.25656 8.84761 9.03487 8.94185 8.83125C11.0044 1.77062 8.43998 0.58125 8.13748 0.43C8.02996 0.389559 7.91402 0.376704 7.80026 0.392607C7.68649 0.408511 7.57853 0.452667 7.48622 0.521041C7.39392 0.589415 7.32021 0.679828 7.27185 0.784021C7.22348 0.888214 7.202 1.00286 7.20935 1.1175C7.31935 2.30687 7.40873 3.24875 5.38748 4.50688L5.2706 4.56875C1.12498 6.76188 0.258726 9.8075 0.258726 11.9731V11.9731Z" fill="url(#paint0_linear_3_153)"/>
<defs>
<linearGradient id="paint0_linear_3_153" x1="7.91061" y1="0.385986" x2="7.91061" y2="19.625" gradientUnits="userSpaceOnUse">
<stop stop-color="#EC7E41"/>
<stop offset="1" stop-color="#CE2121"/>
</linearGradient>
</defs>
</svg>
