<svg width="30" height="31" viewBox="0 0 30 31" fill="none" xmlns="http://www.w3.org/2000/svg">
<rect y="0.6875" width="30" height="30" rx="4" fill="url(#paint0_linear_3_224)"/>
<path d="M15.1246 7.68847C10.6992 7.62086 7.08724 11.1039 7.00153 15.529C6.98898 16.1786 7.05391 16.8111 7.18773 17.4176C7.41425 18.4447 7.54893 19.4898 7.54893 20.5416V22.5746C7.54893 22.8861 7.80141 23.1386 8.11291 23.1386H10.1459C11.1977 23.1386 12.2428 23.2733 13.2699 23.4998C13.8764 23.6336 14.5089 23.6986 15.1585 23.686C19.5835 23.6003 23.0666 19.9884 22.9991 15.5631C22.9332 11.2436 19.4441 7.75441 15.1246 7.68847Z" fill="url(#paint1_linear_3_224)"/>
<path d="M12.1364 15.2587C11.9104 15.0186 11.5906 14.8678 11.2347 14.8678C10.5504 14.8678 9.99561 15.4226 9.99561 16.1069C9.99561 16.4627 10.1464 16.7826 10.3865 17.0086L13.0596 19.6816C13.2856 19.9218 13.6054 20.0726 13.9612 20.0726C14.6456 20.0726 15.2004 19.5178 15.2004 18.8334C15.2004 18.4776 15.0496 18.1577 14.8095 17.9317L12.1364 15.2587Z" fill="url(#paint2_linear_3_224)"/>
<path d="M11.2347 17.3459C11.919 17.3459 12.4738 16.7911 12.4738 16.1068C12.4738 15.4224 11.919 14.8676 11.2347 14.8676C10.5503 14.8676 9.99554 15.4224 9.99554 16.1068C9.99554 16.7911 10.5503 17.3459 11.2347 17.3459Z" fill="url(#paint3_linear_3_224)"/>
<path d="M15.6408 15.2587C15.4148 15.0186 15.095 14.8678 14.7391 14.8678C14.0548 14.8678 13.5 15.4226 13.5 16.1069C13.5 16.4627 13.6508 16.7826 13.8909 17.0086L16.564 19.6816C16.79 19.9218 17.1098 20.0726 17.4656 20.0726C18.15 20.0726 18.7048 19.5178 18.7048 18.8334C18.7048 18.4776 18.554 18.1577 18.3139 17.9317L15.6408 15.2587Z" fill="url(#paint4_linear_3_224)"/>
<path d="M14.7391 17.3459C15.4235 17.3459 15.9783 16.7911 15.9783 16.1068C15.9783 15.4224 15.4235 14.8676 14.7391 14.8676C14.0548 14.8676 13.5 15.4224 13.5 16.1068C13.5 16.7911 14.0548 17.3459 14.7391 17.3459Z" fill="url(#paint5_linear_3_224)"/>
<path d="M19.1452 15.2587C18.9192 15.0186 18.5994 14.8678 18.2435 14.8678C17.5592 14.8678 17.0044 15.4226 17.0044 16.1069C17.0044 16.4627 17.1552 16.7826 17.3953 17.0086L20.0683 19.6816C20.2944 19.9218 20.6142 20.0726 20.97 20.0726C21.6544 20.0726 22.2092 19.5178 22.2092 18.8334C22.2092 18.4776 22.0584 18.1577 21.8182 17.9317L19.1452 15.2587Z" fill="url(#paint6_linear_3_224)"/>
<path d="M18.2437 17.3459C18.928 17.3459 19.4828 16.7911 19.4828 16.1068C19.4828 15.4224 18.928 14.8676 18.2437 14.8676C17.5593 14.8676 17.0045 15.4224 17.0045 16.1068C17.0045 16.7911 17.5593 17.3459 18.2437 17.3459Z" fill="url(#paint7_linear_3_224)"/>
<defs>
<linearGradient id="paint0_linear_3_224" x1="30" y1="0.82147" x2="1.25" y2="29.259" gradientUnits="userSpaceOnUse">
<stop stop-color="#0C8CD3"/>
<stop offset="1" stop-color="#175DC6"/>
</linearGradient>
<linearGradient id="paint1_linear_3_224" x1="12.0772" y1="14.3942" x2="22.2561" y2="24.5731" gradientUnits="userSpaceOnUse">
<stop stop-color="white"/>
<stop offset="1" stop-color="#B4B9BC"/>
</linearGradient>
<linearGradient id="paint2_linear_3_224" x1="13.9912" y1="18.8637" x2="8.63189" y2="13.5045" gradientUnits="userSpaceOnUse">
<stop stop-color="#B4B9BC" stop-opacity="0"/>
<stop offset="1" stop-color="#7E888D"/>
</linearGradient>
<linearGradient id="paint3_linear_3_224" x1="12.4738" y1="14.8787" x2="10.0988" y2="17.2279" gradientUnits="userSpaceOnUse">
<stop stop-color="#0C8CD3"/>
<stop offset="1" stop-color="#175DC6"/>
</linearGradient>
<linearGradient id="paint4_linear_3_224" x1="17.4956" y1="18.8637" x2="12.1363" y2="13.5045" gradientUnits="userSpaceOnUse">
<stop stop-color="#B4B9BC" stop-opacity="0"/>
<stop offset="1" stop-color="#7E888D"/>
</linearGradient>
<linearGradient id="paint5_linear_3_224" x1="15.9783" y1="14.8787" x2="13.6033" y2="17.2279" gradientUnits="userSpaceOnUse">
<stop stop-color="#0C8CD3"/>
<stop offset="1" stop-color="#175DC6"/>
</linearGradient>
<linearGradient id="paint6_linear_3_224" x1="21" y1="18.8637" x2="15.6407" y2="13.5045" gradientUnits="userSpaceOnUse">
<stop stop-color="#B4B9BC" stop-opacity="0"/>
<stop offset="1" stop-color="#7E888D"/>
</linearGradient>
<linearGradient id="paint7_linear_3_224" x1="19.4828" y1="14.8787" x2="17.1078" y2="17.2279" gradientUnits="userSpaceOnUse">
<stop stop-color="#0C8CD3"/>
<stop offset="1" stop-color="#175DC6"/>
</linearGradient>
</defs>
</svg>
