<svg width="48" height="48" viewBox="0 0 48 48" fill="none" xmlns="http://www.w3.org/2000/svg">
<circle cx="24" cy="24" r="24" fill="url(#paint0_linear_43_85542)"/>
<g clip-path="url(#clip0_43_85542)">
<path d="M19.4172 27.3955L19.0202 32.9795C19.5882 32.9795 19.8342 32.7355 20.1292 32.4425L22.7922 29.8975L28.3102 33.9385C29.3222 34.5025 30.0352 34.2055 30.3082 33.0075L33.9302 16.0355L33.9312 16.0345C34.2522 14.5385 33.3902 13.9535 32.4042 14.3205L11.1142 22.4715C9.66118 23.0355 9.68318 23.8455 10.8672 24.2125L16.3102 25.9055L28.9532 17.9945C29.5482 17.6005 30.0892 17.8185 29.6442 18.2125L19.4172 27.3955Z" fill="white"/>
</g>
<defs>
<linearGradient id="paint0_linear_43_85542" x1="48" y1="0.214353" x2="2" y2="45.7144" gradientUnits="userSpaceOnUse">
<stop stop-color="#0C8CD3"/>
<stop offset="1" stop-color="#175DC6"/>
</linearGradient>
<clipPath id="clip0_43_85542">
<rect width="24" height="24" fill="white" transform="translate(10 12.2144)"/>
</clipPath>
</defs>
</svg>
